<mxfile host="app.diagrams.net" modified="2023-01-19T12:22:54.251Z" agent="5.0 (Windows NT 10.0; Win64; x64) AppleWebKit/537.36 (KHTML, like Gecko) Chrome/109.0.0.0 Safari/537.36" version="20.8.5" etag="sjzL2bdF0cmjSlsuwqkY" type="github">
  <diagram id="F0ZXXBXvvQCW3Igz8Br-" name="Page-1">
    <mxGraphModel dx="794" dy="430" grid="1" gridSize="10" guides="1" tooltips="1" connect="1" arrows="1" fold="1" page="1" pageScale="1" pageWidth="850" pageHeight="1100" math="0" shadow="0">
      <root>
        <mxCell id="0" />
        <mxCell id="1" parent="0" />
        <mxCell id="tdap5YaHSlhHCDR9mJGX-2" value="&amp;nbsp; &amp;nbsp; &amp;nbsp;Analysing&lt;span style=&quot;white-space: pre;&quot;&gt;	&lt;/span&gt;" style="shape=step;perimeter=stepPerimeter;whiteSpace=wrap;html=1;fixedSize=1;" vertex="1" parent="1">
          <mxGeometry x="190" y="180" width="120" height="80" as="geometry" />
        </mxCell>
        <mxCell id="tdap5YaHSlhHCDR9mJGX-3" value="Funnel" style="shape=step;perimeter=stepPerimeter;whiteSpace=wrap;html=1;fixedSize=1;" vertex="1" parent="1">
          <mxGeometry x="50" y="180" width="120" height="80" as="geometry" />
        </mxCell>
        <mxCell id="tdap5YaHSlhHCDR9mJGX-4" value="Backlogs" style="shape=step;perimeter=stepPerimeter;whiteSpace=wrap;html=1;fixedSize=1;" vertex="1" parent="1">
          <mxGeometry x="330" y="180" width="120" height="80" as="geometry" />
        </mxCell>
        <mxCell id="tdap5YaHSlhHCDR9mJGX-5" value="&amp;nbsp; &amp;nbsp;Planned in PI" style="shape=step;perimeter=stepPerimeter;whiteSpace=wrap;html=1;fixedSize=1;" vertex="1" parent="1">
          <mxGeometry x="460" y="180" width="120" height="80" as="geometry" />
        </mxCell>
        <mxCell id="tdap5YaHSlhHCDR9mJGX-6" value="&amp;nbsp; &amp;nbsp;Implementing" style="shape=step;perimeter=stepPerimeter;whiteSpace=wrap;html=1;fixedSize=1;" vertex="1" parent="1">
          <mxGeometry x="590" y="180" width="120" height="80" as="geometry" />
        </mxCell>
      </root>
    </mxGraphModel>
  </diagram>
</mxfile>
